<?xml version="1.0" encoding="UTF-8" standalone="no"?>
<!DOCTYPE svg PUBLIC "-//W3C//DTD SVG 1.1//EN" "http://www.w3.org/Graphics/SVG/1.1/DTD/svg11.dtd">
<!-- Created with Vectornator (http://vectornator.io/) -->
<svg height="280.00000000000006px" stroke-miterlimit="10" style="fill-rule:nonzero;clip-rule:evenodd;stroke-linecap:round;stroke-linejoin:round;" version="1.1" viewBox="0 0 600 280" width="600.0px" xml:space="preserve" xmlns="http://www.w3.org/2000/svg" xmlns:xlink="http://www.w3.org/1999/xlink">
<defs/>
<clipPath id="ArtboardFrame">
<rect height="280" width="600" x="0" y="0"/>
</clipPath>
<g clip-path="url(#ArtboardFrame)" id="Layer-1">
<g opacity="1">
<path d="M132.208 140.763L135.802 135.194C154.435 135.373 170.583 137.671 184.246 142.089C197.91 146.508 208.446 153.578 215.856 163.299C223.265 173.021 226.97 185.969 226.97 202.143C226.97 218.582 222.933 232.614 214.857 244.237C206.782 255.86 194.715 264.721 178.656 270.819C162.598 276.918 142.723 279.967 119.031 279.967L-0.0936574 279.967L-0.0936574 251.461L36.7781 240.592L29.1916 251.995L29.1916 29.3991L38.6373 41.3309L-0.0936574 30.4617L-0.0936574 1.95593L83.8941-0.0327057L125.152-0.0327057C144.496-0.0327057 160.957 2.41994 174.532 7.32524C188.108 12.2305 198.49 19.7873 205.677 29.9957C212.864 40.204 216.458 53.3062 216.458 69.3022C216.458 91.0446 209.514 107.794 195.626 119.549C181.738 131.305 160.599 138.376 132.208 140.763ZM113.841 40.1377L77.5055 40.1377L86.4208 31.2572L86.4208 125.779L77.5055 117.694L105.056 117.694C115.346 117.694 124.551 116.501 132.67 114.115C140.788 111.728 147.2 107.574 151.904 101.652C156.608 95.7293 158.96 87.5977 158.96 77.2568C158.96 67.4462 156.986 59.8676 153.036 54.5211C149.087 49.1746 143.741 45.4407 136.996 43.3195C130.252 41.1983 122.534 40.1377 113.841 40.1377ZM113.972 239.529C124.353 239.529 133.67 238.293 141.922 235.819C150.174 233.346 156.696 229.082 161.487 223.027C166.278 216.972 168.674 208.598 168.674 197.905C168.674 187.564 166.566 179.454 162.351 173.575C158.136 167.696 152.657 163.52 145.915 161.047C139.173 158.573 131.896 157.337 124.085 157.337L77.5055 157.337L86.4208 147.393L86.4208 248.416L77.5055 239.529L113.972 239.529Z" fill="#e0565b" fill-rule="nonzero" opacity="1" stroke="none"/>
<path d="M245.295 72.3479C245.295 63.0676 248.423 55.5771 254.679 49.8763C260.934 44.1756 268.321 41.3252 276.839 41.3252C286.688 41.3252 294.474 44.1756 300.197 49.8763C305.921 55.5771 308.782 63.0676 308.782 72.3479C308.782 81.6281 305.588 89.1187 299.199 94.8194C292.811 100.52 285.357 103.371 276.839 103.371C267.256 103.371 259.603 100.52 253.88 94.8194C248.157 89.1187 245.295 81.6281 245.295 72.3479Z" fill="#e0565b" fill-rule="nonzero" opacity="1" stroke="none"/>
<path d="M245.295 202.312C245.295 193.031 248.423 185.541 254.679 179.84C260.934 174.139 268.321 171.289 276.839 171.289C286.688 171.289 294.474 174.139 300.197 179.84C305.921 185.541 308.782 193.031 308.782 202.312C308.782 211.592 305.588 219.082 299.199 224.783C292.811 230.484 285.357 233.334 276.839 233.334C267.256 233.334 259.603 230.484 253.88 224.783C248.157 219.082 245.295 211.592 245.295 202.312Z" fill="#e0565b" fill-rule="nonzero" opacity="1" stroke="none"/>
<path d="M314.412 279.967L314.412 251.461L351.284 240.592L343.698 251.995L343.698 29.2686L353.143 41.2004L314.412 30.4617L314.412 1.95593L430.206-0.0327057L430.206 28.4731L392.274 41.2004L400.927 29.0013L400.927 125.649L392.011 116.768L522.31 116.768L513.389 125.649L513.389 29.2686L522.31 41.0636L484.11 30.4617L484.11 1.95593L599.903-0.0327057L599.903 28.4731L562.77 40.9331L570.624 29.0013L570.624 251.995L562.77 240.592L599.903 251.461L599.903 279.967L484.11 279.967L484.11 251.461L520.713 240.592L513.389 251.995L513.389 148.848L522.31 157.734L392.011 157.734L400.927 148.848L400.927 251.995L393.609 240.592L430.206 251.461L430.206 279.967L314.412 279.967Z" fill="#e0565b" fill-rule="nonzero" opacity="1" stroke="none"/>
</g>
</g>
</svg>
